<svg viewBox="0 -27 512 512" xmlns="http://www.w3.org/2000/svg"><path d="m270 384h-220c-16.542969 0-30-13.457031-30-30v-304c0-16.542969 13.457031-30 30-30h358c16.542969 0 30 13.457031 30 30v120c0 5.523438 4.476562 10 10 10s10-4.476562 10-10v-120c0-27.570312-22.429688-50-50-50h-358c-27.570312 0-50 22.429688-50 50v304c0 27.570312 22.429688 50 50 50h220c5.523438 0 10-4.476562 10-10s-4.476562-10-10-10zm0 0"/><path d="m455.070312 219.070312c1.859376-1.859374 2.929688-4.441406 2.929688-7.070312s-1.070312-5.210938-2.929688-7.070312c-1.859374-1.859376-4.441406-2.929688-7.070312-2.929688s-5.210938 1.070312-7.070312 2.929688c-1.859376 1.859374-2.929688 4.441406-2.929688 7.070312s1.070312 5.210938 2.929688 7.070312c1.859374 1.859376 4.441406 2.929688 7.070312 2.929688s5.210938-1.070312 7.070312-2.929688zm0 0"/><path d="m388.75 277.066406c-31.808594 0-57.683594 25.875-57.683594 57.683594s25.875 57.683594 57.683594 57.683594 57.683594-25.875 57.683594-57.683594-25.875-57.683594-57.683594-57.683594zm0 95.367188c-20.777344 0-37.683594-16.902344-37.683594-37.683594s16.90625-37.683594 37.683594-37.683594 37.683594 16.902344 37.683594 37.683594-16.90625 37.683594-37.683594 37.683594zm0 0"/><path d="m378.75 221.5v27c0 5.523438 4.476562 10 10 10s10-4.476562 10-10v-27c0-5.523438-4.476562-10-10-10s-10 4.476562-10 10zm0 0"/><path d="m388.75 413.832031c-5.523438 0-10 4.480469-10 10v24.167969c0 5.523438 4.476562 10 10 10s10-4.476562 10-10v-24.167969c0-5.519531-4.476562-10-10-10zm0 0"/><path d="m502 324.75h-27c-5.523438 0-10 4.476562-10 10s4.476562 10 10 10h27c5.523438 0 10-4.476562 10-10s-4.476562-10-10-10zm0 0"/><path d="m299.667969 324.75h-24.167969c-5.523438 0-10 4.476562-10 10s4.476562 10 10 10h24.167969c5.523437 0 10-4.476562 10-10s-4.480469-10-10-10zm0 0"/><path d="m456.808594 388.667969c-3.90625-3.90625-10.238282-3.90625-14.140625 0-3.90625 3.902343-3.90625 10.234375 0 14.140625l19.089843 19.09375c1.953126 1.953125 4.511719 2.929687 7.070313 2.929687 2.5625 0 5.121094-.976562 7.074219-2.929687 3.902344-3.90625 3.902344-10.238282 0-14.144532zm0 0"/><path d="m320.691406 388.667969-19.09375 19.089843c-3.902344 3.90625-3.90625 10.238282 0 14.144532 1.953125 1.953125 4.511719 2.929687 7.074219 2.929687 2.558594 0 5.117187-.976562 7.070313-2.929687l19.089843-19.09375c3.90625-3.902344 3.90625-10.234375 0-14.140625-3.902343-3.902344-10.234375-3.902344-14.140625 0zm0 0"/><path d="m444.671875 278.828125c1.949219 1.953125 4.511719 2.929687 7.070313 2.929687 2.558593 0 5.117187-.976562 7.070312-2.929687l17.089844-17.085937c3.902344-3.90625 3.902344-10.238282 0-14.144532-3.90625-3.902344-10.238282-3.902344-14.144532 0l-17.089843 17.089844c-3.902344 3.90625-3.902344 10.238281.003906 14.140625zm0 0"/><path d="m229 82.96875c-61.773438 0-112.03125 50.257812-112.03125 112.03125s50.257812 112.03125 112.03125 112.03125c32.375 0 61.578125-13.808594 82.050781-35.835938l7.636719 7.632813c1.953125 1.953125 4.511719 2.929687 7.070312 2.929687 2.558594 0 5.121094-.976562 7.070313-2.929687 3.90625-3.902344 3.90625-10.234375 0-14.140625l-9.421875-9.421875c11.15625-17.414063 17.625-38.097656 17.625-60.265625 0-61.773438-50.257812-112.03125-112.03125-112.03125zm0 204.0625c-50.746094 0-92.03125-41.285156-92.03125-92.03125s41.285156-92.03125 92.03125-92.03125 92.03125 41.285156 92.03125 92.03125-41.285156 92.03125-92.03125 92.03125zm0 0"/><path d="m277.191406 175.449219-54.25-34.773438c-6.804687-4.363281-15.433594-4.660156-22.523437-.785156-7.089844 3.878906-11.492188 11.304687-11.492188 19.386719v69.546875c0 8.078125 4.402344 15.507812 11.492188 19.382812 3.3125 1.8125 6.957031 2.710938 10.597656 2.710938 4.15625 0 8.300781-1.171875 11.925781-3.492188l54.25-34.773437c6.371094-4.085938 10.171875-11.039063 10.171875-18.601563 0-7.566406-3.800781-14.519531-10.171875-18.601562zm-10.792968 20.363281-54.25 34.773438c-.695313.445312-1.414063.46875-2.136719.074218-.722657-.394531-1.085938-1.011718-1.085938-1.835937v-69.546875c0-.824219.363281-1.441406 1.085938-1.839844.339843-.183594.679687-.277344 1.015625-.277344.378906 0 .753906.117188 1.121094.351563l54.25 34.773437c.796874.511719.964843 1.242188.964843 1.765625 0 .523438-.167969 1.25-.964843 1.761719zm0 0"/><path d="m48 166.722656v97.5c0 5.523438 4.476562 10 10 10s10-4.476562 10-10v-97.5c0-5.523437-4.476562-10-10-10s-10 4.476563-10 10zm0 0"/><path d="m65.070312 118.710938c-1.859374-1.871094-4.441406-2.929688-7.070312-2.929688s-5.210938 1.058594-7.070312 2.929688c-1.859376 1.859374-2.929688 4.429687-2.929688 7.070312 0 2.628906 1.070312 5.207031 2.929688 7.070312 1.859374 1.859376 4.441406 2.929688 7.070312 2.929688s5.210938-1.070312 7.070312-2.929688c1.859376-1.863281 2.929688-4.441406 2.929688-7.070312 0-2.640625-1.070312-5.210938-2.929688-7.070312zm0 0"/></svg>